<?xml version="1.0" encoding="utf-8"?>
<!-- Svg Vector Icons : http://www.onlinewebfonts.com/icon -->
<!DOCTYPE svg PUBLIC "-//W3C//DTD SVG 1.1//EN" "http://www.w3.org/Graphics/SVG/1.1/DTD/svg11.dtd">
<svg version="1.1" xmlns="http://www.w3.org/2000/svg" xmlns:xlink="http://www.w3.org/1999/xlink" x="0px" y="0px" viewBox="0 0 256 256" enable-background="new 0 0 256 256" xml:space="preserve">
<metadata> Svg Vector Icons : http://www.onlinewebfonts.com/icon </metadata>
<g><g><path fill="#c0c0c0" d="M209.6,60.2c-20.4-13.7-48.7-16.6-69.1-7.8c-12.6,4.9-27.2,17.6-34.1,34.3c-2,4.9-2.9,10.8-3.9,16.6c-2,7.8-2,14.7-4.9,20.6c-1,3.9-3.9,6.8-8.8,9.8c1,1,2,1,3.9,1c2.9,0,6.8,0,8.8-1c10.7-3.9,13.6-10.8,18.5-18.6c5.8-9.8,15.6-16.6,28.2-15.7c7.8,0,11.7,2.9,14.6,3.9c9.7,5.9,13.6,17.6,14.6,24.5c1,0,1,3.9,1,4.9c2,12.7,0,22.5-2.9,33.3c-12.7,39.1-53.6,65.6-96.4,54.8c-17.5-4.9-33.1-15.7-45.8-29.4l-2-2c0,0,1,2,1,2.9c3.9,4.9,6.8,8.8,10.7,13.7c9.7,9.8,20.4,18.6,32.1,23.5c2.9,1,5.8,2,8.8,2.9c2,0,3.9,1,5.8,1c2,1,3.9,1,5.8,1c5.8,1,10.7,1,16.6,1c9.7,0,19.5-2.9,27.2-5.9c3.9-1,7.8-2.9,11.7-4.9c3.9-2,6.8-3.9,9.7-5.9c28.2-20.6,41.8-55.8,38.9-89.1c-1-5.9-2-12.7-3.9-18.6c0,0,1,0,1,1c2,2.9,3.9,5.9,5.8,7.8c1,3.9,2.9,8.8,3.9,12.7c2.9,8.8,2.9,14.7,2.9,14.7c0,14.7-1,28.4-5.8,40.1c-5.8,15.7-17.5,29.4-31.2,39.2c-11.7,8.8-25.3,14.5-41.8,17.7h2c10.7,0,21.4-1.1,31.2-5c7.8-2.9,16.6-6.9,24.3-12.8c9.7-6.8,18.5-16.7,24.3-27.4c11.7-20.6,15.6-46,11.7-71.5c-2-9.8-4.9-18.6-8.8-26.4c-2-4.9-3.9-9.8-5.8-12.7l1,1c1,1,2,2,2.9,2.9c6.8,6.8,11.7,13.7,16.6,23.5c1,2.9,2,6.8,2.9,9.8c2,4.9,2.9,10.8,2.9,14.7c1,7.8,0,13.7,0,19.6c-1,5.9-2,12.7-3.9,19.6c-1,2-2,5.9-2.9,8.8c1-2,1-2.9,2-3.9c2.9-3.9,7.8-14.7,9.7-22.5c1-3.9,2-7.8,2.9-11.8c1-3.9,1-6.8,2-9.8C248.6,111.1,234.9,78.8,209.6,60.2z"/><path fill="#c0c0c0" d="M122.6,139.9c3.3-1,5.8-2.1,7.4-4.2c3.3-4.2,4.1-8.4,9.1-12.6c1.6-2.1,3.3-3.1,4.9-4.2c-2.5-1-4.9-2.1-7.4-2.1c-5.8-1-9.1,2.1-12.4,7.3c-4.1,6.3-6.6,11.5-12.4,12.6c0.8,1,2.5,2.1,3.3,2.1C116.9,139.9,120.2,139.9,122.6,139.9z"/><path fill="#c0c0c0" d="M46.3,194.6c20.4,14.6,47.7,17.5,69.1,8.8c12.6-4.9,26.3-17.5,33.1-34.1c2-5.9,3.9-10.7,4.9-16.6c1-8.8,1-15.6,3.9-21.4c2-2.9,4.9-6.8,8.8-8.8c-1-1-2-1-2.9-1c-3.9-1-6.8,0-9.7,1c-9.7,3.9-12.6,10.7-17.5,17.5c-6.8,9.7-15.6,17.5-28.2,16.6c-8.8,0-11.7-2.9-14.6-3.9c-10.7-6.8-14.6-18.5-15.6-24.4c0,0-1-3.9-1-5.9c-2-11.7,0-22.4,2.9-32.1c12.6-39,53.5-65.3,96.4-54.5c18.5,4.9,33.1,15.6,46.7,28.3c-2.9-4.9-6.8-8.8-10.7-13.6c-8.8-9.7-19.5-18.5-32.1-23.4c-2.9-1-4.9-2-8.8-2.9c-2-1-3.9-1-5.8-2c-2,0-2.9,0-5.8-1c-5.8-1-10.7-1-15.6-1c-10.7,0-19.5,2.9-28.2,5.9c-2.9,2-7.8,3.9-11.7,5.9c-2.9,2-6.8,3.9-9.7,5.9c-28.2,20.5-40.9,55.5-38.9,88.6c0.9,5.6,1.9,11.2,3.6,17.6c0,0,0.1,0,0.1,0.1v0c0,0,0,0.1,0.1,0.1c0,0,0,0,0,0c0,0,0,0.1,0,0.2c0,0,0,0,0,0.1c0,0.1,0,0.2,0,0.3c-0.1-0.3-0.2-0.7-0.2-0.9l0,0c-0.1,0-0.1,0-0.3,0c0,0,0,0-0.1,0c-0.1,0-0.2,0-0.4,0c-2-2.9-3.9-5.8-4.9-8.8c-2-3.9-3.9-7.8-4.9-11.7c-2-8.8-2-14.6-2-14.6c-1-14.6,1-28.3,5.8-39.9C58,53.4,68.8,39.8,82.4,30c12.6-9.7,25.3-14.6,42.8-17.5c0-1-2.9,0-2.9-1c-10.7,1-20.4,2-30.2,5.9c-8.8,2-17.5,6.8-24.3,11.7c-10.7,7.8-18.5,17.5-25.3,28.3c-10.7,20.5-15.6,45.8-11.7,70.1c2,10.7,4.9,18.5,8.8,27.3c2,3.9,4.9,9.7,6.8,12.7c0,0-1-1-2-1c-1-1-2-2-2.9-2.9c-6.8-6.8-11.7-13.6-15.6-23.4c-2-3.9-2.9-6.8-3.9-10.7c-1-3.9-2-9.7-2.9-13.6c0-7.8,0-13.6,1-19.5c0-5.9,2-12.7,3.9-20.5c0-2,2-5.9,2.9-7.8c-2,2-2,2-2.9,3.9c-2.9,3.9-6.8,14.6-9.7,21.4c-1,4.9-2,7.8-2.9,12.7c0,2.9-1,6.8-1,9.7C7.4,144.9,21,177.1,46.3,194.6z"/></g></g>
</svg>