<?xml version="1.0" encoding="utf-8"?>
<svg viewBox="-35.248 92.349 570.497 315.302" xmlns="http://www.w3.org/2000/svg">
  <g enable-background="new" transform="matrix(1, 0, 0, 1, -294.307465, -785.98291)">
    <g id="Layer-1" data-name="Layer">
      <clipPath id="cp0">
        <path transform="matrix(1,0,0,-1,0,2000)" d="M 0 2000 L 2000 2000 L 2000 0 L 0 0 Z "/>
      </clipPath>
      <g clip-path="url(#cp0)">
        <path d="M 602.525 1107.418 C 596.284 1111.883 590.41 1116.833 585.022 1122.399 C 574.482 1133.307 566.487 1145.766 562.129 1160.403 C 559.015 1170.837 557.972 1181.472 559.157 1192.319 C 559.204 1192.71 559.346 1193.113 559.026 1193.634 C 558.529 1191.443 558.316 1189.335 558.114 1187.239 C 556.374 1168.563 559.654 1150.609 565.789 1133.046 C 567.991 1126.781 570.988 1120.849 573.191 1114.583 C 576.613 1104.896 577.845 1094.9 577.193 1084.656 C 576.116 1067.78 570.668 1052.207 562.923 1037.345 C 558.127 1028.143 552.489 1019.485 546.011 1011.373 L 545.762 1011.373 C 546.189 1014.642 546.674 1017.898 547.053 1021.167 C 548.581 1034.147 548.937 1047.103 546.532 1060.035 C 544.152 1072.802 538.562 1083.91 529.668 1093.385 C 525.985 1097.305 522.219 1101.178 518.974 1105.477 C 512.01 1114.689 506.93 1124.851 504.028 1136.078 C 503.945 1136.397 503.875 1136.718 503.78 1137.037 C 503.756 1137.12 503.685 1137.18 503.496 1137.452 C 499.374 1130.264 497.432 1122.66 497.503 1114.513 C 497.574 1106.341 499.931 1098.785 504.004 1091.466 C 503.614 1091.608 503.472 1091.62 503.413 1091.691 C 501.198 1094.522 498.628 1097.032 495.975 1099.448 C 490.859 1104.079 487.105 1109.716 483.718 1115.638 C 481.953 1118.717 480.39 1121.866 479.004 1125.076 L 525.914 932.606 C 525.914 932.606 530.651 902.999 502.228 904.775 C 502.228 904.775 511.703 887.45 538.349 904.693 C 538.349 904.693 560.554 894.709 577.726 932.902 L 588.977 947.706 L 577.726 942.377 C 577.726 942.377 567.956 938.231 568.548 947.706 Z" fill="#fe6b0c"/>
        <path d="M 602.702 1186.434 C 602.276 1186.931 601.909 1187.796 601.257 1187.654 C 600.653 1187.524 600.76 1186.6 600.594 1186.008 C 599.09 1180.631 597.633 1175.231 596.106 1169.866 C 594.08 1162.82 594.163 1155.738 595.241 1148.549 C 596.816 1137.89 600.298 1127.918 604.834 1118.302" fill="#fe6b0c"/>
        <path d="M 819.841 892.87 C 808.249 910.423 795.195 926.721 778.826 940.113 C 765.344 951.138 750.385 959.248 733.203 962.903 C 724.598 964.716 715.867 965.763 707.128 966.85 C 683.036 969.886 661.174 978.607 641.395 992.645 C 640.809 993.052 640.404 993.875 639.33 993.68 C 640.5 985.572 643.213 977.991 647.044 970.826 C 655.962 954.095 669.621 942.608 686.989 935.241 C 682.482 935.816 678.061 936.15 673.606 936.435 C 666.769 936.87 660.079 937.805 653.314 939.221 C 582.583 954.023 567.307 1017.832 567.307 1017.832 C 567.962 1016.995 568.612 1016.141 569.267 1015.303 C 573.248 1010.187 577.351 1005.153 582.504 1001.103 C 594.066 992.011 607.285 986.443 621.398 982.727 C 623.228 982.231 625.037 981.526 627.306 981.527 C 623.558 986.77 620.149 991.836 617.367 997.306 C 612.982 1005.923 609.767 1014.864 610.166 1024.724 C 610.261 1027.121 610.498 1029.536 611.56 1031.965 C 612.645 1031.06 613.041 1030.006 613.569 1029.068 C 620.315 1016.885 630.173 1008.388 643.331 1003.816 C 652.33 1000.676 661.652 999.574 671.12 999.308 C 683.698 998.975 696.22 1000.321 708.743 1001.002 C 716.077 1001.4 723.441 1001.829 730.616 999.946 C 743.454 996.622 755.286 991.128 765.883 983.08 C 767.063 982.167 768.244 981.255 769.553 980.246 C 769.561 980.674 769.603 980.818 769.557 980.93 C 769.336 981.444 769.091 981.946 768.842 982.43 C 762.255 994.821 754.411 1006.328 744.902 1016.621 C 739.002 1023.002 732.47 1028.628 724.882 1032.979 C 706.263 1043.628 688.326 1055.269 672.824 1070.288 C 665.779 1077.101 659.447 1084.547 654.497 1093.037 C 649.503 1101.579 646.163 1110.829 642.977 1120.134 C 641.312 1124.943 639.805 1129.824 639.383 1134.936 C 639.362 1135.179 639.354 1135.375 639.341 1135.583 C 676.317 1073.786 718.207 1056.644 738.723 1046.264 C 746.68 1042.234 754.676 1038.272 761.96 1033.013 C 781.758 1018.772 796.028 1000.008 806.524 978.237 C 820.079 950.076 826.669 920.099 829.025 889.089 C 829.306 885.505 829.393 881.92 829.556 878.332 C 826.055 883.15 823.032 888.063 819.841 892.87" fill="#fe6b0c"/>
        <path d="M 268.774 892.87 C 280.366 910.423 293.42 926.721 309.789 940.113 C 323.271 951.138 338.23 959.248 355.412 962.903 C 364.017 964.716 372.748 965.763 381.487 966.85 C 405.579 969.886 427.441 978.607 447.22 992.645 C 447.806 993.052 448.211 993.875 449.285 993.68 C 448.115 985.572 445.402 977.991 441.571 970.826 C 432.653 954.095 418.994 942.608 401.626 935.241 C 406.133 935.816 410.554 936.15 415.009 936.435 C 421.845 936.87 428.536 937.805 435.301 939.221 C 506.032 954.023 521.308 1017.832 521.308 1017.832 C 520.653 1016.995 520.003 1016.141 519.348 1015.303 C 515.367 1010.187 511.264 1005.153 506.11 1001.103 C 494.548 992.011 481.33 986.443 467.217 982.727 C 465.387 982.231 463.578 981.526 461.309 981.527 C 465.057 986.77 468.465 991.836 471.248 997.306 C 475.633 1005.923 478.848 1014.864 478.449 1024.724 C 478.354 1027.121 478.117 1029.536 477.055 1031.965 C 475.97 1031.06 475.574 1030.006 475.046 1029.068 C 468.3 1016.885 458.441 1008.388 445.284 1003.816 C 436.284 1000.676 426.963 999.574 417.495 999.308 C 404.917 998.975 392.395 1000.321 379.872 1001.002 C 372.538 1001.4 365.174 1001.829 357.999 999.946 C 345.16 996.622 333.328 991.128 322.732 983.08 C 321.551 982.167 320.371 981.255 319.062 980.246 C 319.054 980.674 319.012 980.818 319.058 980.93 C 319.279 981.444 319.523 981.946 319.773 982.43 C 326.36 994.821 334.204 1006.328 343.713 1016.621 C 349.613 1023.002 356.145 1028.628 363.733 1032.979 C 382.352 1043.628 400.289 1055.269 415.791 1070.288 C 422.836 1077.101 429.168 1084.547 434.118 1093.037 C 439.112 1101.579 442.452 1110.829 445.638 1120.134 C 447.303 1124.943 448.81 1129.824 449.232 1134.936 C 449.253 1135.179 449.261 1135.375 449.273 1135.583 C 412.298 1073.786 370.408 1056.644 349.892 1046.264 C 341.935 1042.234 333.939 1038.272 326.655 1033.013 C 306.857 1018.772 292.587 1000.008 282.091 978.237 C 268.535 950.076 261.946 920.099 259.59 889.089 C 259.308 885.505 259.222 881.92 259.059 878.332 C 262.56 883.15 265.583 888.063 268.774 892.87" fill="#fe6b0c"/>
      </g>
    </g>
  </g>
</svg>