<?xml version="1.0" encoding="UTF-8" standalone="no"?>
<!DOCTYPE svg PUBLIC "-//W3C//DTD SVG 1.1//EN" "http://www.w3.org/Graphics/SVG/1.1/DTD/svg11.dtd">
<svg xmlns="http://www.w3.org/2000/svg" xmlns:xlink="http://www.w3.org/1999/xlink" version="1.1" width="2000pt" height="2000pt" viewBox="0 0 2000 2000">
<g enable-background="new">
<g id="Layer-1" data-name="Layer">
<clipPath id="cp0">
<path transform="matrix(1,0,0,-1,0,2000)" d="M 0 2000 L 2000 2000 L 2000 0 L 0 0 Z "/>
</clipPath>
<g clip-path="url(#cp0)">
<path transform="matrix(1,0,0,-1,898.3765,940.751)" d="M 0 0 L 7.973 0 C 24.621 0 27.273 9.949 27.273 26.098 L 27.273 34.32 C 27.273 46.586 24.841 56.97 9.878 56.97 L 0 56.97 Z M -21.593 74.97 L 11.542 74.97 C 36.422 74.97 48.768 62.55 48.768 35.112 L 48.768 25.496 C 48.768 -.083 40.23 -17.827 10.241 -17.827 L 0 -17.827 L 0 -86.057 L -21.593 -86.057 Z " fill="#333333"/>
<path transform="matrix(1,0,0,-1,1011.0244,865.78128)" d="M 0 0 L 21.593 0 L 21.593 -64.913 L 51.177 -64.913 L 51.177 0 L 72.77 0 L 72.77 -161.026 L 51.177 -161.026 L 51.177 -84.765 L 21.593 -84.765 L 21.593 -161.026 L 0 -161.026 Z " fill="#333333"/>
<path transform="matrix(1,0,0,-1,1173.0747,905.4424)" d="M 0 0 L 0 -82.073 C 0 -97.44 5.562 -104.115 15.296 -104.115 C 25.681 -104.115 30.691 -97.774 30.691 -81.543 L 30.691 .102 C 30.691 14.695 25.949 22.239 15.225 22.239 C 5.157 22.239 0 15.272 0 0 M 52.695 -1.738 L 52.695 -79.441 C 52.695 -109.219 40.206 -123.634 14.308 -123.634 C -11.343 -123.634 -22.003 -108.277 -22.003 -79.774 L -22.003 -1.644 C -22.003 27.729 -7.776 41.924 15.708 41.924 C 39.861 41.924 52.695 26.913 52.695 -1.738 " fill="#333333"/>
<path transform="matrix(1,0,0,-1,1350.4815,951.3906)" d="M 0 0 L -35.699 0 L -35.699 -55.56 L 5.183 -55.56 L 2.384 -75.417 L -57.292 -75.417 L -57.292 85.609 L 2 85.609 L 2 65.579 L -35.699 65.579 L -35.699 19.856 L 0 19.856 Z " fill="#333333"/>
<path transform="matrix(1,0,0,-1,1416.5581,1026.8076)" d="M 0 0 L 0 161.026 L 25.258 161.026 C 32.629 135.322 53.184 53.761 55.276 43.287 L 55.592 43.287 C 54.529 63.865 54.386 86.527 54.386 112.898 L 54.386 161.026 L 74.458 161.026 L 74.458 0 L 50.117 0 C 43.567 23.858 21.444 112.303 19.229 121.615 L 18.988 121.615 C 20.123 102.163 20.242 78.697 20.242 49.694 L 20.242 0 Z " fill="#333333"/>
<path transform="matrix(1,0,0,-1,0,2000)" d="M 1583.476 973.192 L 1561.8829 973.192 L 1561.8829 1134.218 L 1583.476 1134.218 Z " fill="#333333"/>
<path transform="matrix(1,0,0,-1,1701.0576,1026.8076)" d="M 0 0 L -17.658 61.692 L -17.898 61.692 L -36.476 0 L -58.816 0 L -30.227 82.556 L -57.396 161.026 L -33.63 161.026 L -17.151 105.188 L -16.91 105.188 L -.456 161.026 L 22.125 161.026 L -5.088 85.646 L 23.909 0 Z " fill="#333333"/>
<path transform="matrix(1,0,0,-1,884.3604,1102.5752)" d="M 0 0 L -5.814 42.139 L .202 42.139 C 1.31 32.558 2.947 17.006 3.284 9.604 L 3.391 9.604 C 4.198 17.619 6.421 32.588 7.708 42.139 L 13.296 42.139 C 14.626 32.379 16.83 18.435 17.55 9.86 L 17.696 9.86 C 18.181 17.66 19.845 32.272 20.953 42.139 L 26.687 42.139 L 20.39 0 L 14.507 0 C 13.239 9.616 11.194 23.145 10.36 31.1 L 10.253 31.1 C 9.318 22.775 7.189 9.366 5.838 0 Z " fill="#fe6b0c"/>
<path transform="matrix(1,0,0,-1,949.9399,1082.8428)" d="M 0 0 L -9.339 0 L -9.339 -14.534 L 1.358 -14.534 L .625 -19.732 L -14.99 -19.732 L -14.99 22.406 L .524 22.406 L .524 17.166 L -9.339 17.166 L -9.339 5.198 L 0 5.198 Z " fill="#fe6b0c"/>
<path transform="matrix(1,0,0,-1,974.7812,1060.4365)" d="M 0 0 L 5.65 0 L 5.65 -37.077 L 16.246 -37.077 L 15.716 -42.139 L 0 -42.139 Z " fill="#fe6b0c"/>
<path transform="matrix(1,0,0,-1,1013.9062,1060.4365)" d="M 0 0 L 5.651 0 L 5.651 -37.077 L 16.246 -37.077 L 15.716 -42.139 L 0 -42.139 Z " fill="#fe6b0c"/>
<path transform="matrix(1,0,0,-1,1053.0317,1102.5752)" d="M 0 0 L 0 42.139 L 6.609 42.139 C 8.538 35.41 13.915 14.07 14.463 11.325 L 14.546 11.325 C 14.269 16.714 14.23 22.645 14.23 29.545 L 14.23 42.139 L 19.482 42.139 L 19.482 0 L 13.114 0 C 11.399 6.246 5.609 29.385 5.031 31.825 L 4.969 31.825 C 5.264 26.734 5.296 20.59 5.296 13.004 L 5.296 0 Z " fill="#fe6b0c"/>
<path transform="matrix(1,0,0,-1,1113.5503,1082.8428)" d="M 0 0 L -9.339 0 L -9.339 -14.534 L 1.358 -14.534 L .625 -19.732 L -14.99 -19.732 L -14.99 22.406 L .524 22.406 L .524 17.166 L -9.339 17.166 L -9.339 5.198 L 0 5.198 Z " fill="#fe6b0c"/>
<path transform="matrix(1,0,0,-1,1143.1343,1090.3984)" d="M 0 0 L 0 -2.536 C 0 -6.025 1.122 -7.925 3.795 -7.925 C 6.532 -7.925 7.413 -5.621 7.413 -2.09 C 7.413 2.607 6.392 4.228 1.905 7.746 C -2.617 11.307 -4.981 13.528 -4.981 19.75 C -4.981 25.216 -3.334 30.616 3.852 30.599 C 10.994 30.575 12.388 25.609 12.388 20.709 L 12.388 18.583 L 6.782 18.583 L 6.782 20.56 C 6.782 23.733 6.21 25.71 3.745 25.71 C 1.304 25.71 .669 23.579 .669 20.571 C .669 17.202 1.325 15.731 5.097 12.933 C 11.208 8.371 13.108 5.764 13.108 -1.263 C 13.108 -7.217 11.182 -12.771 3.638 -12.771 C -3.739 -12.771 -5.651 -8.021 -5.651 -2.465 L -5.651 0 Z " fill="#fe6b0c"/>
<path transform="matrix(1,0,0,-1,1185.2959,1090.3984)" d="M 0 0 L 0 -2.536 C 0 -6.025 1.123 -7.925 3.796 -7.925 C 6.532 -7.925 7.413 -5.621 7.413 -2.09 C 7.413 2.607 6.392 4.228 1.905 7.746 C -2.617 11.307 -4.98 13.528 -4.98 19.75 C -4.98 25.216 -3.334 30.616 3.853 30.599 C 10.995 30.575 12.388 25.609 12.388 20.709 L 12.388 18.583 L 6.782 18.583 L 6.782 20.56 C 6.782 23.733 6.21 25.71 3.745 25.71 C 1.304 25.71 .67 23.579 .67 20.571 C .67 17.202 1.325 15.731 5.097 12.933 C 11.209 8.371 13.108 5.764 13.108 -1.263 C 13.108 -7.217 11.182 -12.771 3.638 -12.771 C -3.739 -12.771 -5.65 -8.021 -5.65 -2.465 L -5.65 0 Z " fill="#fe6b0c"/>
<path transform="matrix(1,0,0,-1,1262.4629,1085.1943)" d="M 0 0 C -1.176 8.05 -2.155 15.005 -2.602 19.44 L -2.816 19.44 C -2.986 16.059 -4.355 6.841 -5.32 0 Z M -6.053 -5.192 L -7.755 -17.381 L -13.492 -17.381 L -6.648 24.758 L 1.354 24.758 L 8.47 -17.381 L 2.56 -17.381 L .69 -5.192 Z " fill="#fe6b0c"/>
<path transform="matrix(1,0,0,-1,1294.3833,1102.5752)" d="M 0 0 L 0 42.139 L 6.609 42.139 C 8.539 35.41 13.915 14.07 14.463 11.325 L 14.546 11.325 C 14.27 16.714 14.231 22.645 14.231 29.545 L 14.231 42.139 L 19.482 42.139 L 19.482 0 L 13.114 0 C 11.399 6.246 5.609 29.385 5.031 31.825 L 4.969 31.825 C 5.264 26.734 5.296 20.59 5.296 13.004 L 5.296 0 Z " fill="#fe6b0c"/>
<path transform="matrix(1,0,0,-1,1345.6079,1097.7344)" d="M 0 0 L 2.274 0 C 6.895 0 7.779 2.811 7.779 7.657 L 7.779 25.425 C 7.779 29.718 7.014 32.409 2.269 32.409 L 0 32.409 Z M -5.651 37.298 L 2.786 37.298 C 11.792 37.298 13.537 32.242 13.537 24.9 L 13.537 8.539 C 13.537 2.084 12.477 -4.841 2.658 -4.841 L -5.651 -4.841 Z " fill="#fe6b0c"/>
<path transform="matrix(1,0,0,-1,1418.5679,1078.6748)" d="M 0 0 L 2.021 0 C 5.695 0 6.871 1.727 6.871 6.276 L 6.871 7.901 C 6.871 11.408 6.038 13.528 2.128 13.528 L 0 13.528 Z M 0 -4.71 L 0 -23.9 L -5.65 -23.9 L -5.65 18.238 L 2.659 18.238 C 9.036 18.238 12.54 15.601 12.54 8.276 L 12.54 6.532 C 12.54 .375 10.155 -1.565 8.25 -2.292 C 10.798 -3.376 12.135 -5.245 12.135 -10.932 C 12.135 -14.504 12.072 -21.304 12.534 -23.9 L 7.059 -23.9 C 6.511 -21.322 6.618 -14.332 6.618 -11.318 C 6.618 -6.043 5.913 -4.71 1.971 -4.71 Z " fill="#fe6b0c"/>
<path transform="matrix(1,0,0,-1,1471.2359,1082.8428)" d="M 0 0 L -9.339 0 L -9.339 -14.534 L 1.358 -14.534 L .625 -19.732 L -14.99 -19.732 L -14.99 22.406 L .524 22.406 L .524 17.166 L -9.339 17.166 L -9.339 5.198 L 0 5.198 Z " fill="#fe6b0c"/>
<path transform="matrix(1,0,0,-1,1514.0352,1090.1904)" d="M 0 0 L 0 -1.554 C 0 -6.597 -.873 -12.979 -9.238 -12.979 C -16.827 -12.979 -18.312 -7.979 -18.312 -1.649 L -18.312 19.679 C -18.312 26.282 -15.386 30.343 -9.149 30.343 C -1.599 30.343 -.19 25.198 -.19 19.494 L -.19 17.708 L -5.88 17.708 L -5.88 20.078 C -5.88 23.103 -6.479 25.192 -9.188 25.192 C -11.804 25.192 -12.555 23.252 -12.555 20.019 L -12.555 -2.09 C -12.555 -5.46 -11.849 -7.871 -9.086 -7.871 C -6.344 -7.871 -5.734 -5.597 -5.734 -2.107 L -5.734 0 Z " fill="#fe6b0c"/>
<path transform="matrix(1,0,0,-1,1543.6992,1070.8154)" d="M 0 0 L 0 -21.477 C 0 -25.496 1.456 -27.246 4.004 -27.246 C 6.722 -27.246 8.032 -25.585 8.032 -21.34 L 8.032 .024 C 8.032 3.847 6.791 5.817 3.986 5.817 C 1.352 5.817 0 3.996 0 0 M 13.79 -.458 L 13.79 -20.786 C 13.79 -28.58 10.521 -32.354 3.745 -32.354 C -2.968 -32.354 -5.758 -28.336 -5.758 -20.875 L -5.758 -.429 C -5.758 7.253 -2.034 10.968 4.111 10.968 C 10.432 10.968 13.79 7.038 13.79 -.458 " fill="#fe6b0c"/>
<path transform="matrix(1,0,0,-1,1587.5845,1102.5752)" d="M 0 0 L -7.359 42.139 L -1.256 42.139 L 1.221 24.258 C 2.01 18.494 3.058 12.01 3.436 7.365 L 3.543 7.365 C 3.903 11.79 5.011 18.315 5.755 24.115 L 8.175 42.139 L 14.216 42.139 L 6.958 0 Z " fill="#fe6b0c"/>
<path transform="matrix(1,0,0,-1,1640.1548,1082.8428)" d="M 0 0 L -9.339 0 L -9.339 -14.534 L 1.357 -14.534 L .625 -19.732 L -14.99 -19.732 L -14.99 22.406 L .524 22.406 L .524 17.166 L -9.339 17.166 L -9.339 5.198 L 0 5.198 Z " fill="#fe6b0c"/>
<path transform="matrix(1,0,0,-1,1670.646,1078.6748)" d="M 0 0 L 2.021 0 C 5.695 0 6.872 1.727 6.872 6.276 L 6.872 7.901 C 6.872 11.408 6.038 13.528 2.129 13.528 L 0 13.528 Z M 0 -4.71 L 0 -23.9 L -5.65 -23.9 L -5.65 18.238 L 2.659 18.238 C 9.036 18.238 12.54 15.601 12.54 8.276 L 12.54 6.532 C 12.54 .375 10.155 -1.565 8.25 -2.292 C 10.798 -3.376 12.135 -5.245 12.135 -10.932 C 12.135 -14.504 12.072 -21.304 12.534 -23.9 L 7.059 -23.9 C 6.511 -21.322 6.618 -14.332 6.618 -11.318 C 6.618 -6.043 5.913 -4.71 1.971 -4.71 Z " fill="#fe6b0c"/>
<path transform="matrix(1,0,0,-1,1713.2813,1102.5752)" d="M 0 0 L 0 15.261 C 0 15.773 -.065 16.07 -.217 16.571 L -8.026 42.139 L -1.786 42.139 C .072 34.964 2.254 26.592 2.921 22.305 L 2.986 22.305 C 3.829 26.901 6.005 35.178 7.72 42.139 L 13.719 42.139 L 5.776 16.13 C 5.713 15.833 5.648 15.445 5.648 14.672 L 5.648 0 Z " fill="#fe6b0c"/>
<path transform="matrix(1,0,0,-1,616.4663,1071.4356)" d="M 0 0 C -6.241 -4.465 -12.115 -9.415 -17.503 -14.981 C -28.043 -25.889 -36.038 -38.348 -40.396 -52.985 C -43.51 -63.419 -44.553 -74.054 -43.368 -84.901 C -43.321 -85.292 -43.179 -85.695 -43.499 -86.216 C -43.996 -84.025 -44.209 -81.917 -44.411 -79.821 C -46.151 -61.145 -42.871 -43.191 -36.736 -25.628 C -34.534 -19.363 -31.537 -13.431 -29.334 -7.165 C -25.912 2.522 -24.68 12.518 -25.332 22.762 C -26.409 39.638 -31.857 55.211 -39.602 70.073 C -44.398 79.275 -50.036 87.933 -56.514 96.045 L -56.763 96.045 C -56.336 92.776 -55.851 89.52 -55.472 86.251 C -53.944 73.271 -53.588 60.315 -55.993 47.383 C -58.373 34.616 -63.963 23.508 -72.857 14.033 C -76.54 10.113 -80.306 6.24 -83.551 1.941 C -90.515 -7.271 -95.595 -17.433 -98.497 -28.66 C -98.58 -28.979 -98.65 -29.3 -98.745 -29.619 C -98.769 -29.702 -98.84 -29.762 -99.029 -30.034 C -103.151 -22.846 -105.093 -15.242 -105.022 -7.095 C -104.951 1.077 -102.594 8.633 -98.521 15.952 C -98.911 15.81 -99.053 15.798 -99.112 15.727 C -101.327 12.896 -103.897 10.386 -106.55 7.97 C -111.666 3.339 -115.42 -2.298 -118.807 -8.22 C -120.572 -11.299 -122.135 -14.448 -123.521 -17.658 L -76.611 174.812 C -76.611 174.812 -71.874 204.419 -100.297 202.643 C -100.297 202.643 -90.822 219.968 -64.176 202.725 C -64.176 202.725 -41.971 212.709 -24.799 174.516 L -13.548 159.712 L -24.799 165.041 C -24.799 165.041 -34.569 169.187 -33.977 159.712 Z " fill="#fe6b0c"/>
<path transform="matrix(1,0,0,-1,616.644,1150.4512)" d="M 0 0 C -.426 -.497 -.793 -1.362 -1.445 -1.22 C -2.049 -1.09 -1.942 -.166 -2.108 .426 C -3.612 5.803 -5.069 11.203 -6.596 16.568 C -8.622 23.614 -8.539 30.696 -7.461 37.885 C -5.886 48.544 -2.404 58.516 2.132 68.132 " fill="#fe6b0c"/>
<path transform="matrix(1,0,0,-1,833.7832,856.8867)" d="M 0 0 C -11.592 -17.553 -24.646 -33.851 -41.015 -47.243 C -54.497 -58.268 -69.456 -66.378 -86.638 -70.033 C -95.243 -71.846 -103.974 -72.893 -112.713 -73.98 C -136.805 -77.016 -158.667 -85.737 -178.446 -99.775 C -179.032 -100.182 -179.437 -101.005 -180.511 -100.81 C -179.341 -92.702 -176.628 -85.121 -172.797 -77.956 C -163.879 -61.225 -150.22 -49.738 -132.852 -42.371 C -137.359 -42.946 -141.78 -43.28 -146.235 -43.565 C -153.072 -44 -159.762 -44.935 -166.527 -46.351 C -237.258 -61.153 -252.534 -124.962 -252.534 -124.962 C -251.879 -124.125 -251.229 -123.271 -250.574 -122.433 C -246.593 -117.317 -242.49 -112.283 -237.337 -108.233 C -225.775 -99.141 -212.556 -93.573 -198.443 -89.857 C -196.613 -89.361 -194.804 -88.656 -192.535 -88.657 C -196.283 -93.9 -199.692 -98.966 -202.474 -104.436 C -206.859 -113.053 -210.074 -121.994 -209.675 -131.854 C -209.58 -134.251 -209.343 -136.666 -208.281 -139.095 C -207.196 -138.19 -206.8 -137.136 -206.272 -136.198 C -199.526 -124.015 -189.668 -115.518 -176.51 -110.946 C -167.511 -107.806 -158.189 -106.704 -148.721 -106.438 C -136.143 -106.105 -123.621 -107.451 -111.098 -108.132 C -103.764 -108.53 -96.4 -108.959 -89.225 -107.076 C -76.387 -103.752 -64.555 -98.258 -53.958 -90.21 C -52.778 -89.297 -51.597 -88.385 -50.288 -87.376 C -50.28 -87.804 -50.238 -87.948 -50.284 -88.06 C -50.505 -88.574 -50.75 -89.076 -50.999 -89.56 C -57.586 -101.951 -65.43 -113.458 -74.939 -123.751 C -80.839 -130.132 -87.371 -135.758 -94.959 -140.109 C -113.578 -150.758 -131.515 -162.399 -147.017 -177.418 C -154.062 -184.231 -160.394 -191.677 -165.344 -200.167 C -170.338 -208.709 -173.678 -217.959 -176.864 -227.264 C -178.529 -232.073 -180.036 -236.954 -180.458 -242.066 C -180.479 -242.309 -180.487 -242.505 -180.5 -242.713 C -143.524 -180.916 -101.634 -163.774 -81.118 -153.394 C -73.161 -149.364 -65.165 -145.402 -57.881 -140.143 C -38.083 -125.902 -23.813 -107.138 -13.317 -85.367 C .238 -57.206 6.828 -27.229 9.184 3.781 C 9.465 7.365 9.552 10.95 9.715 14.538 C 6.214 9.72 3.191 4.807 0 0 " fill="#fe6b0c"/>
<path transform="matrix(1,0,0,-1,282.7153,856.8867)" d="M 0 0 C 11.592 -17.553 24.646 -33.851 41.015 -47.243 C 54.497 -58.268 69.456 -66.378 86.638 -70.033 C 95.243 -71.846 103.974 -72.893 112.713 -73.98 C 136.805 -77.016 158.667 -85.737 178.446 -99.775 C 179.032 -100.182 179.437 -101.005 180.511 -100.81 C 179.341 -92.702 176.628 -85.121 172.797 -77.956 C 163.879 -61.225 150.22 -49.738 132.852 -42.371 C 137.359 -42.946 141.78 -43.28 146.235 -43.565 C 153.071 -44 159.762 -44.935 166.527 -46.351 C 237.258 -61.153 252.534 -124.962 252.534 -124.962 C 251.879 -124.125 251.229 -123.271 250.574 -122.433 C 246.593 -117.317 242.49 -112.283 237.336 -108.233 C 225.774 -99.141 212.556 -93.573 198.443 -89.857 C 196.613 -89.361 194.804 -88.656 192.535 -88.657 C 196.283 -93.9 199.691 -98.966 202.474 -104.436 C 206.859 -113.053 210.074 -121.994 209.675 -131.854 C 209.58 -134.251 209.343 -136.666 208.281 -139.095 C 207.196 -138.19 206.8 -137.136 206.272 -136.198 C 199.526 -124.015 189.667 -115.518 176.51 -110.946 C 167.51 -107.806 158.189 -106.704 148.721 -106.438 C 136.143 -106.105 123.621 -107.451 111.098 -108.132 C 103.764 -108.53 96.4 -108.959 89.225 -107.076 C 76.386 -103.752 64.554 -98.258 53.958 -90.21 C 52.777 -89.297 51.597 -88.385 50.288 -87.376 C 50.28 -87.804 50.238 -87.948 50.284 -88.06 C 50.505 -88.574 50.749 -89.076 50.999 -89.56 C 57.586 -101.951 65.43 -113.458 74.939 -123.751 C 80.839 -130.132 87.371 -135.758 94.959 -140.109 C 113.578 -150.758 131.515 -162.399 147.017 -177.418 C 154.062 -184.231 160.394 -191.677 165.344 -200.167 C 170.338 -208.709 173.678 -217.959 176.864 -227.264 C 178.529 -232.073 180.036 -236.954 180.458 -242.066 C 180.479 -242.309 180.487 -242.505 180.499 -242.713 C 143.524 -180.916 101.634 -163.774 81.118 -153.394 C 73.161 -149.364 65.165 -145.402 57.881 -140.143 C 38.083 -125.902 23.813 -107.138 13.317 -85.367 C -.239 -57.206 -6.828 -27.229 -9.184 3.781 C -9.466 7.365 -9.552 10.95 -9.715 14.538 C -6.214 9.72 -3.191 4.807 0 0 " fill="#fe6b0c"/>
</g>
</g>
</g>
</svg>
