<?xml version="1.0" encoding="utf-8"?>
<svg viewBox="344.56 113.518 850.217 239.651" xmlns="http://www.w3.org/2000/svg">
  <path transform="matrix(1, 0, 0, -1, 366.152832, 190.750854)" d="M 0 0 L 7.973 0 C 24.621 0 27.273 9.949 27.273 26.098 L 27.273 34.32 C 27.273 46.586 24.841 56.97 9.878 56.97 L 0 56.97 Z M -21.593 74.97 L 11.542 74.97 C 36.422 74.97 48.768 62.55 48.768 35.112 L 48.768 25.496 C 48.768 -.083 40.23 -17.827 10.241 -17.827 L 0 -17.827 L 0 -86.057 L -21.593 -86.057 Z " fill="#ffffff"/>
  <path transform="matrix(1, 0, 0, -1, 478.80072, 115.781128)" d="M 0 0 L 21.593 0 L 21.593 -64.913 L 51.177 -64.913 L 51.177 0 L 72.77 0 L 72.77 -161.026 L 51.177 -161.026 L 51.177 -84.765 L 21.593 -84.765 L 21.593 -161.026 L 0 -161.026 Z " fill="#ffffff"/>
  <path transform="matrix(1, 0, 0, -1, 640.851013, 155.442261)" d="M 0 0 L 0 -82.073 C 0 -97.44 5.562 -104.115 15.296 -104.115 C 25.681 -104.115 30.691 -97.774 30.691 -81.543 L 30.691 .102 C 30.691 14.695 25.949 22.239 15.225 22.239 C 5.157 22.239 0 15.272 0 0 M 52.695 -1.738 L 52.695 -79.441 C 52.695 -109.219 40.206 -123.634 14.308 -123.634 C -11.343 -123.634 -22.003 -108.277 -22.003 -79.774 L -22.003 -1.644 C -22.003 27.729 -7.776 41.924 15.708 41.924 C 39.861 41.924 52.695 26.913 52.695 -1.738 " fill="#ffffff"/>
  <path transform="matrix(1, 0, 0, -1, 818.257751, 201.390503)" d="M 0 0 L -35.699 0 L -35.699 -55.56 L 5.183 -55.56 L 2.384 -75.417 L -57.292 -75.417 L -57.292 85.609 L 2 85.609 L 2 65.579 L -35.699 65.579 L -35.699 19.856 L 0 19.856 Z " fill="#ffffff"/>
  <path transform="matrix(1, 0, 0, -1, 884.334412, 276.807495)" d="M 0 0 L 0 161.026 L 25.258 161.026 C 32.629 135.322 53.184 53.761 55.276 43.287 L 55.592 43.287 C 54.529 63.865 54.386 86.527 54.386 112.898 L 54.386 161.026 L 74.458 161.026 L 74.458 0 L 50.117 0 C 43.567 23.858 21.444 112.303 19.229 121.615 L 18.988 121.615 C 20.123 102.163 20.242 78.697 20.242 49.694 L 20.242 0 Z " fill="#ffffff"/>
  <path transform="matrix(1, 0, 0, -1, -532.223694, 1249.999878)" d="M 1583.476 973.192 L 1561.8829 973.192 L 1561.8829 1134.218 L 1583.476 1134.218 Z " fill="#ffffff"/>
  <path transform="matrix(1, 0, 0, -1, 1168.833923, 276.807495)" d="M 0 0 L -17.658 61.692 L -17.898 61.692 L -36.476 0 L -58.816 0 L -30.227 82.556 L -57.396 161.026 L -33.63 161.026 L -17.151 105.188 L -16.91 105.188 L -.456 161.026 L 22.125 161.026 L -5.088 85.646 L 23.909 0 Z " fill="#ffffff"/>
  <path transform="matrix(1, 0, 0, -1, 352.136719, 352.575073)" d="M 0 0 L -5.814 42.139 L .202 42.139 C 1.31 32.558 2.947 17.006 3.284 9.604 L 3.391 9.604 C 4.198 17.619 6.421 32.588 7.708 42.139 L 13.296 42.139 C 14.626 32.379 16.83 18.435 17.55 9.86 L 17.696 9.86 C 18.181 17.66 19.845 32.272 20.953 42.139 L 26.687 42.139 L 20.39 0 L 14.507 0 C 13.239 9.616 11.194 23.145 10.36 31.1 L 10.253 31.1 C 9.318 22.775 7.189 9.366 5.838 0 Z " fill="#fe6b0c"/>
  <path transform="matrix(1, 0, 0, -1, 417.716187, 332.842651)" d="M 0 0 L -9.339 0 L -9.339 -14.534 L 1.358 -14.534 L .625 -19.732 L -14.99 -19.732 L -14.99 22.406 L .524 22.406 L .524 17.166 L -9.339 17.166 L -9.339 5.198 L 0 5.198 Z " fill="#fe6b0c"/>
  <path transform="matrix(1, 0, 0, -1, 442.557495, 310.436401)" d="M 0 0 L 5.65 0 L 5.65 -37.077 L 16.246 -37.077 L 15.716 -42.139 L 0 -42.139 Z " fill="#fe6b0c"/>
  <path transform="matrix(1, 0, 0, -1, 481.682495, 310.436401)" d="M 0 0 L 5.651 0 L 5.651 -37.077 L 16.246 -37.077 L 15.716 -42.139 L 0 -42.139 Z " fill="#fe6b0c"/>
  <path transform="matrix(1, 0, 0, -1, 520.808044, 352.575073)" d="M 0 0 L 0 42.139 L 6.609 42.139 C 8.538 35.41 13.915 14.07 14.463 11.325 L 14.546 11.325 C 14.269 16.714 14.23 22.645 14.23 29.545 L 14.23 42.139 L 19.482 42.139 L 19.482 0 L 13.114 0 C 11.399 6.246 5.609 29.385 5.031 31.825 L 4.969 31.825 C 5.264 26.734 5.296 20.59 5.296 13.004 L 5.296 0 Z " fill="#fe6b0c"/>
  <path transform="matrix(1, 0, 0, -1, 581.326599, 332.842651)" d="M 0 0 L -9.339 0 L -9.339 -14.534 L 1.358 -14.534 L .625 -19.732 L -14.99 -19.732 L -14.99 22.406 L .524 22.406 L .524 17.166 L -9.339 17.166 L -9.339 5.198 L 0 5.198 Z " fill="#fe6b0c"/>
  <path transform="matrix(1, 0, 0, -1, 610.910583, 340.398315)" d="M 0 0 L 0 -2.536 C 0 -6.025 1.122 -7.925 3.795 -7.925 C 6.532 -7.925 7.413 -5.621 7.413 -2.09 C 7.413 2.607 6.392 4.228 1.905 7.746 C -2.617 11.307 -4.981 13.528 -4.981 19.75 C -4.981 25.216 -3.334 30.616 3.852 30.599 C 10.994 30.575 12.388 25.609 12.388 20.709 L 12.388 18.583 L 6.782 18.583 L 6.782 20.56 C 6.782 23.733 6.21 25.71 3.745 25.71 C 1.304 25.71 .669 23.579 .669 20.571 C .669 17.202 1.325 15.731 5.097 12.933 C 11.208 8.371 13.108 5.764 13.108 -1.263 C 13.108 -7.217 11.182 -12.771 3.638 -12.771 C -3.739 -12.771 -5.651 -8.021 -5.651 -2.465 L -5.651 0 Z " fill="#fe6b0c"/>
  <path transform="matrix(1, 0, 0, -1, 653.072205, 340.398315)" d="M 0 0 L 0 -2.536 C 0 -6.025 1.123 -7.925 3.796 -7.925 C 6.532 -7.925 7.413 -5.621 7.413 -2.09 C 7.413 2.607 6.392 4.228 1.905 7.746 C -2.617 11.307 -4.98 13.528 -4.98 19.75 C -4.98 25.216 -3.334 30.616 3.853 30.599 C 10.995 30.575 12.388 25.609 12.388 20.709 L 12.388 18.583 L 6.782 18.583 L 6.782 20.56 C 6.782 23.733 6.21 25.71 3.745 25.71 C 1.304 25.71 .67 23.579 .67 20.571 C .67 17.202 1.325 15.731 5.097 12.933 C 11.209 8.371 13.108 5.764 13.108 -1.263 C 13.108 -7.217 11.182 -12.771 3.638 -12.771 C -3.739 -12.771 -5.65 -8.021 -5.65 -2.465 L -5.65 0 Z " fill="#fe6b0c"/>
  <path transform="matrix(1, 0, 0, -1, 730.239197, 335.194214)" d="M 0 0 C -1.176 8.05 -2.155 15.005 -2.602 19.44 L -2.816 19.44 C -2.986 16.059 -4.355 6.841 -5.32 0 Z M -6.053 -5.192 L -7.755 -17.381 L -13.492 -17.381 L -6.648 24.758 L 1.354 24.758 L 8.47 -17.381 L 2.56 -17.381 L .69 -5.192 Z " fill="#fe6b0c"/>
  <path transform="matrix(1, 0, 0, -1, 762.159607, 352.575073)" d="M 0 0 L 0 42.139 L 6.609 42.139 C 8.539 35.41 13.915 14.07 14.463 11.325 L 14.546 11.325 C 14.27 16.714 14.231 22.645 14.231 29.545 L 14.231 42.139 L 19.482 42.139 L 19.482 0 L 13.114 0 C 11.399 6.246 5.609 29.385 5.031 31.825 L 4.969 31.825 C 5.264 26.734 5.296 20.59 5.296 13.004 L 5.296 0 Z " fill="#fe6b0c"/>
  <path transform="matrix(1, 0, 0, -1, 813.384216, 347.734253)" d="M 0 0 L 2.274 0 C 6.895 0 7.779 2.811 7.779 7.657 L 7.779 25.425 C 7.779 29.718 7.014 32.409 2.269 32.409 L 0 32.409 Z M -5.651 37.298 L 2.786 37.298 C 11.792 37.298 13.537 32.242 13.537 24.9 L 13.537 8.539 C 13.537 2.084 12.477 -4.841 2.658 -4.841 L -5.651 -4.841 Z " fill="#fe6b0c"/>
  <path transform="matrix(1, 0, 0, -1, 886.344177, 328.674683)" d="M 0 0 L 2.021 0 C 5.695 0 6.871 1.727 6.871 6.276 L 6.871 7.901 C 6.871 11.408 6.038 13.528 2.128 13.528 L 0 13.528 Z M 0 -4.71 L 0 -23.9 L -5.65 -23.9 L -5.65 18.238 L 2.659 18.238 C 9.036 18.238 12.54 15.601 12.54 8.276 L 12.54 6.532 C 12.54 .375 10.155 -1.565 8.25 -2.292 C 10.798 -3.376 12.135 -5.245 12.135 -10.932 C 12.135 -14.504 12.072 -21.304 12.534 -23.9 L 7.059 -23.9 C 6.511 -21.322 6.618 -14.332 6.618 -11.318 C 6.618 -6.043 5.913 -4.71 1.971 -4.71 Z " fill="#fe6b0c"/>
  <path transform="matrix(1, 0, 0, -1, 939.012146, 332.842651)" d="M 0 0 L -9.339 0 L -9.339 -14.534 L 1.358 -14.534 L .625 -19.732 L -14.99 -19.732 L -14.99 22.406 L .524 22.406 L .524 17.166 L -9.339 17.166 L -9.339 5.198 L 0 5.198 Z " fill="#fe6b0c"/>
  <path transform="matrix(1, 0, 0, -1, 981.811462, 340.190308)" d="M 0 0 L 0 -1.554 C 0 -6.597 -.873 -12.979 -9.238 -12.979 C -16.827 -12.979 -18.312 -7.979 -18.312 -1.649 L -18.312 19.679 C -18.312 26.282 -15.386 30.343 -9.149 30.343 C -1.599 30.343 -.19 25.198 -.19 19.494 L -.19 17.708 L -5.88 17.708 L -5.88 20.078 C -5.88 23.103 -6.479 25.192 -9.188 25.192 C -11.804 25.192 -12.555 23.252 -12.555 20.019 L -12.555 -2.09 C -12.555 -5.46 -11.849 -7.871 -9.086 -7.871 C -6.344 -7.871 -5.734 -5.597 -5.734 -2.107 L -5.734 0 Z " fill="#fe6b0c"/>
  <path transform="matrix(1, 0, 0, -1, 1011.475525, 320.815308)" d="M 0 0 L 0 -21.477 C 0 -25.496 1.456 -27.246 4.004 -27.246 C 6.722 -27.246 8.032 -25.585 8.032 -21.34 L 8.032 .024 C 8.032 3.847 6.791 5.817 3.986 5.817 C 1.352 5.817 0 3.996 0 0 M 13.79 -.458 L 13.79 -20.786 C 13.79 -28.58 10.521 -32.354 3.745 -32.354 C -2.968 -32.354 -5.758 -28.336 -5.758 -20.875 L -5.758 -.429 C -5.758 7.253 -2.034 10.968 4.111 10.968 C 10.432 10.968 13.79 7.038 13.79 -.458 " fill="#fe6b0c"/>
  <path transform="matrix(1, 0, 0, -1, 1055.360779, 352.575073)" d="M 0 0 L -7.359 42.139 L -1.256 42.139 L 1.221 24.258 C 2.01 18.494 3.058 12.01 3.436 7.365 L 3.543 7.365 C 3.903 11.79 5.011 18.315 5.755 24.115 L 8.175 42.139 L 14.216 42.139 L 6.958 0 Z " fill="#fe6b0c"/>
  <path transform="matrix(1, 0, 0, -1, 1107.931091, 332.842651)" d="M 0 0 L -9.339 0 L -9.339 -14.534 L 1.357 -14.534 L .625 -19.732 L -14.99 -19.732 L -14.99 22.406 L .524 22.406 L .524 17.166 L -9.339 17.166 L -9.339 5.198 L 0 5.198 Z " fill="#fe6b0c"/>
  <path transform="matrix(1, 0, 0, -1, 1138.422302, 328.674683)" d="M 0 0 L 2.021 0 C 5.695 0 6.872 1.727 6.872 6.276 L 6.872 7.901 C 6.872 11.408 6.038 13.528 2.129 13.528 L 0 13.528 Z M 0 -4.71 L 0 -23.9 L -5.65 -23.9 L -5.65 18.238 L 2.659 18.238 C 9.036 18.238 12.54 15.601 12.54 8.276 L 12.54 6.532 C 12.54 .375 10.155 -1.565 8.25 -2.292 C 10.798 -3.376 12.135 -5.245 12.135 -10.932 C 12.135 -14.504 12.072 -21.304 12.534 -23.9 L 7.059 -23.9 C 6.511 -21.322 6.618 -14.332 6.618 -11.318 C 6.618 -6.043 5.913 -4.71 1.971 -4.71 Z " fill="#fe6b0c"/>
  <path transform="matrix(1, 0, 0, -1, 1181.057556, 352.575073)" d="M 0 0 L 0 15.261 C 0 15.773 -.065 16.07 -.217 16.571 L -8.026 42.139 L -1.786 42.139 C .072 34.964 2.254 26.592 2.921 22.305 L 2.986 22.305 C 3.829 26.901 6.005 35.178 7.72 42.139 L 13.719 42.139 L 5.776 16.13 C 5.713 15.833 5.648 15.445 5.648 14.672 L 5.648 0 Z " fill="#fe6b0c"/>
</svg>